<?xml version="1.0" encoding="UTF-8" standalone="no"?>
<svg
   xmlns:dc="http://purl.org/dc/elements/1.1/"
   xmlns:cc="http://creativecommons.org/ns#"
   xmlns:rdf="http://www.w3.org/1999/02/22-rdf-syntax-ns#"
   xmlns:svg="http://www.w3.org/2000/svg"
   xmlns="http://www.w3.org/2000/svg"
   viewBox="0 0 793.70667 1077.16"
   height="1077.16"
   width="793.70667"
   xml:space="preserve"
   id="svg2"
   version="1.1"><metadata
     id="metadata8"><rdf:RDF><cc:Work
         rdf:about=""><dc:format>image/svg+xml</dc:format><dc:type
           rdf:resource="http://purl.org/dc/dcmitype/StillImage" /></cc:Work></rdf:RDF></metadata><defs
     id="defs6" /><g
     transform="matrix(1.3333333,0,0,-1.3333333,0,1077.16)"
     id="g10"><path
       id="path12"
       style="fill:none;fill-opacity:1;fill-rule:nonzero;stroke:none"
       d="M 0,0 H 595.281 V 807.87 H 0 Z" /><g
       transform="translate(113.5029,374.0547)"
       id="g14"><path
         id="path16"
         style="fill:#274a93;fill-opacity:1;fill-rule:nonzero;stroke:none"
         d="m 0,0 152.592,-107.479 v 71.653 L -23.221,94.873 21.894,130.036 -26.428,96.532 Z" /></g><g
       transform="translate(145.127,473.3999)"
       id="g18"><path
         id="path20"
         style="fill:#49a826;fill-opacity:1;fill-rule:nonzero;stroke:none"
         d="m 0,0 124.285,-88.067 v 59.931 L -11.499,61.651 18.577,85.536 16.366,87.748 -13.269,63.863 Z" /></g><g
       transform="translate(190.7949,582.0459)"
       id="g22"><path
         id="path24"
         style="fill:#eb7814;fill-opacity:1;fill-rule:nonzero;stroke:none"
         d="m 0,0 -9.289,-27.201 87.906,-57.057 v 37.153 z" /></g><g
       transform="translate(284.3813,266.5762)"
       id="g26"><path
         id="path28"
         style="fill:#fbb359;fill-opacity:1;fill-rule:nonzero;stroke:none"
         d="m 0,0 174.778,156.574 25.874,101.508 -45.778,27.201 -1.991,-3.317 43.788,-25.875 L 0,71.652 Z" /></g><g
       transform="translate(279.3643,441.7266)"
       id="g30"><path
         id="path32"
         style="fill:#288bc8;fill-opacity:1;fill-rule:nonzero;stroke:none"
         d="m 0,0 v -52.412 l 123.401,114.776 21.894,72.316 -90.229,52.413 -1.327,-3.981 84.921,-49.095 1.774,-1.327 -0.447,-2.212 z" /></g><g
       transform="translate(277.3735,534.6328)"
       id="g34"><path
         id="path36"
         style="fill:#626b50;fill-opacity:1;fill-rule:nonzero;stroke:none"
         d="M 0,0 V -34.523 L 90.229,44.428 7.008,94.187 51.085,141.291 -16.586,90.206 52.413,47.413 Z" /></g></g></svg>